<svg viewBox="0 0 330 200" xmlns="http://www.w3.org/2000/svg"><g><g><g><g><g><line x1="41.0620002746582" y1="170.91863672827196" x2="36.0620002746582" y2="170.91863672827196" style="visibility: inherit;" fill="rgb(0, 0, 0)" stroke="rgb(204, 204, 204)" stroke-width="1px"></line><line x1="41.0620002746582" y1="152.5005894087799" x2="36.0620002746582" y2="152.5005894087799" style="visibility: inherit;" fill="rgb(0, 0, 0)" stroke="rgb(204, 204, 204)" stroke-width="1px"></line><line x1="41.0620002746582" y1="134.08254208928784" x2="36.0620002746582" y2="134.08254208928784" style="visibility: inherit;" fill="rgb(0, 0, 0)" stroke="rgb(204, 204, 204)" stroke-width="1px"></line><line x1="41.0620002746582" y1="115.66449476979577" x2="36.0620002746582" y2="115.66449476979577" style="visibility: inherit;" fill="rgb(0, 0, 0)" stroke="rgb(204, 204, 204)" stroke-width="1px"></line><line x1="41.0620002746582" y1="97.24644745030369" x2="36.0620002746582" y2="97.24644745030369" style="visibility: inherit;" fill="rgb(0, 0, 0)" stroke="rgb(204, 204, 204)" stroke-width="1px"></line><line x1="41.0620002746582" y1="78.82840013081163" x2="36.0620002746582" y2="78.82840013081163" style="visibility: inherit;" fill="rgb(0, 0, 0)" stroke="rgb(204, 204, 204)" stroke-width="1px"></line><line x1="41.0620002746582" y1="60.41035281131957" x2="36.0620002746582" y2="60.41035281131957" style="visibility: inherit;" fill="rgb(0, 0, 0)" stroke="rgb(204, 204, 204)" stroke-width="1px"></line><line x1="41.0620002746582" y1="41.992305491827494" x2="36.0620002746582" y2="41.992305491827494" style="visibility: inherit;" fill="rgb(0, 0, 0)" stroke="rgb(204, 204, 204)" stroke-width="1px"></line><line x1="41.0620002746582" y1="23.57425817233539" x2="36.0620002746582" y2="23.57425817233539" style="visibility: inherit;" fill="rgb(0, 0, 0)" stroke="rgb(204, 204, 204)" stroke-width="1px"></line><line x1="41.0620002746582" y1="5.156210852843344" x2="36.0620002746582" y2="5.156210852843344" style="visibility: inherit;" fill="rgb(0, 0, 0)" stroke="rgb(204, 204, 204)" stroke-width="1px"></line></g><g transform="translate(31.062000274658203, 0)"><text style="text-anchor: end; visibility: inherit; font-family: &quot;Helvetica Neue&quot;, sans-serif; font-size: 12px; font-weight: 200;" x="0" y="170.91863672827196" dx="0em" dy="0.3em" fill="rgb(50, 49, 63)" stroke="none" stroke-width="1px">0.1</text><text style="text-anchor: end; visibility: hidden; font-family: &quot;Helvetica Neue&quot;, sans-serif; font-size: 12px; font-weight: 200;" x="0" y="152.5005894087799" dx="0em" dy="0.3em" fill="rgb(50, 49, 63)" stroke="none" stroke-width="1px">0.2</text><text style="text-anchor: end; visibility: inherit; font-family: &quot;Helvetica Neue&quot;, sans-serif; font-size: 12px; font-weight: 200;" x="0" y="134.08254208928784" dx="0em" dy="0.3em" fill="rgb(50, 49, 63)" stroke="none" stroke-width="1px">0.3</text><text style="text-anchor: end; visibility: hidden; font-family: &quot;Helvetica Neue&quot;, sans-serif; font-size: 12px; font-weight: 200;" x="0" y="115.66449476979577" dx="0em" dy="0.3em" fill="rgb(50, 49, 63)" stroke="none" stroke-width="1px">0.4</text><text style="text-anchor: end; visibility: inherit; font-family: &quot;Helvetica Neue&quot;, sans-serif; font-size: 12px; font-weight: 200;" x="0" y="97.24644745030369" dx="0em" dy="0.3em" fill="rgb(50, 49, 63)" stroke="none" stroke-width="1px">0.5</text><text style="text-anchor: end; visibility: hidden; font-family: &quot;Helvetica Neue&quot;, sans-serif; font-size: 12px; font-weight: 200;" x="0" y="78.82840013081163" dx="0em" dy="0.3em" fill="rgb(50, 49, 63)" stroke="none" stroke-width="1px">0.6</text><text style="text-anchor: end; visibility: inherit; font-family: &quot;Helvetica Neue&quot;, sans-serif; font-size: 12px; font-weight: 200;" x="0" y="60.41035281131957" dx="0em" dy="0.3em" fill="rgb(50, 49, 63)" stroke="none" stroke-width="1px">0.7</text><text style="text-anchor: end; visibility: hidden; font-family: &quot;Helvetica Neue&quot;, sans-serif; font-size: 12px; font-weight: 200;" x="0" y="41.992305491827494" dx="0em" dy="0.3em" fill="rgb(50, 49, 63)" stroke="none" stroke-width="1px">0.8</text><text style="text-anchor: end; visibility: inherit; font-family: &quot;Helvetica Neue&quot;, sans-serif; font-size: 12px; font-weight: 200;" x="0" y="23.57425817233539" dx="0em" dy="0.3em" fill="rgb(50, 49, 63)" stroke="none" stroke-width="1px">0.9</text><text style="text-anchor: end; visibility: hidden; font-family: &quot;Helvetica Neue&quot;, sans-serif; font-size: 12px; font-weight: 200;" x="0" y="5.156210852843344" dx="0em" dy="0.3em" fill="rgb(50, 49, 63)" stroke="none" stroke-width="1px">1</text></g><line x1="41.0620002746582" y1="0" x2="41.0620002746582" y2="177.95999908447266" fill="rgb(0, 0, 0)" stroke="rgb(204, 204, 204)" stroke-width="1px"></line></g></g><g transform="translate(41, 0)" clip-path="url(#clip_0)"><clipPath id="clip_0"><rect width="288" height="177"></rect></clipPath><g><g><g><line x1="0.6178247423032363" y1="0" x2="0.6178247423032363" y2="177.95999908447266" fill="rgb(0, 0, 0)" stroke="rgb(60, 60, 60)" stroke-width="1px" opacity="0.25"></line><line x1="22.666369372091054" y1="0" x2="22.666369372091054" y2="177.95999908447266" fill="rgb(0, 0, 0)" stroke="rgb(60, 60, 60)" stroke-width="1px" opacity="0.25"></line><line x1="44.714914001878874" y1="0" x2="44.714914001878874" y2="177.95999908447266" fill="rgb(0, 0, 0)" stroke="rgb(60, 60, 60)" stroke-width="1px" opacity="0.25"></line><line x1="66.7634586316667" y1="0" x2="66.7634586316667" y2="177.95999908447266" fill="rgb(0, 0, 0)" stroke="rgb(60, 60, 60)" stroke-width="1px" opacity="0.25"></line><line x1="88.81200326145452" y1="0" x2="88.81200326145452" y2="177.95999908447266" fill="rgb(0, 0, 0)" stroke="rgb(60, 60, 60)" stroke-width="1px" opacity="0.25"></line><line x1="110.86054789124233" y1="0" x2="110.86054789124233" y2="177.95999908447266" fill="rgb(0, 0, 0)" stroke="rgb(60, 60, 60)" stroke-width="1px" opacity="0.25"></line><line x1="132.90909252103015" y1="0" x2="132.90909252103015" y2="177.95999908447266" fill="rgb(0, 0, 0)" stroke="rgb(60, 60, 60)" stroke-width="1px" opacity="0.25"></line><line x1="154.957637150818" y1="0" x2="154.957637150818" y2="177.95999908447266" fill="rgb(0, 0, 0)" stroke="rgb(60, 60, 60)" stroke-width="1px" opacity="0.25"></line><line x1="177.00618178060577" y1="0" x2="177.00618178060577" y2="177.95999908447266" fill="rgb(0, 0, 0)" stroke="rgb(60, 60, 60)" stroke-width="1px" opacity="0.25"></line><line x1="199.0547264103936" y1="0" x2="199.0547264103936" y2="177.95999908447266" fill="rgb(0, 0, 0)" stroke="rgb(60, 60, 60)" stroke-width="1px" opacity="0.25"></line><line x1="221.10327104018143" y1="0" x2="221.10327104018143" y2="177.95999908447266" fill="rgb(0, 0, 0)" stroke="rgb(60, 60, 60)" stroke-width="1px" opacity="0.25"></line><line x1="243.15181566996927" y1="0" x2="243.15181566996927" y2="177.95999908447266" fill="rgb(0, 0, 0)" stroke="rgb(60, 60, 60)" stroke-width="1px" opacity="0.25"></line><line x1="265.20036029975705" y1="0" x2="265.20036029975705" y2="177.95999908447266" fill="rgb(0, 0, 0)" stroke="rgb(60, 60, 60)" stroke-width="1px" opacity="0.25"></line><line x1="287.2489049295449" y1="0" x2="287.2489049295449" y2="177.95999908447266" fill="rgb(0, 0, 0)" stroke="rgb(60, 60, 60)" stroke-width="1px" opacity="0.25"></line></g><g><line x1="0" y1="170.91863672827196" x2="288.9379997253418" y2="170.91863672827196" fill="rgb(0, 0, 0)" stroke="rgb(60, 60, 60)" stroke-width="1px" opacity="0.25"></line><line x1="0" y1="152.5005894087799" x2="288.9379997253418" y2="152.5005894087799" fill="rgb(0, 0, 0)" stroke="rgb(60, 60, 60)" stroke-width="1px" opacity="0.25"></line><line x1="0" y1="134.08254208928784" x2="288.9379997253418" y2="134.08254208928784" fill="rgb(0, 0, 0)" stroke="rgb(60, 60, 60)" stroke-width="1px" opacity="0.25"></line><line x1="0" y1="115.66449476979577" x2="288.9379997253418" y2="115.66449476979577" fill="rgb(0, 0, 0)" stroke="rgb(60, 60, 60)" stroke-width="1px" opacity="0.25"></line><line x1="0" y1="97.24644745030369" x2="288.9379997253418" y2="97.24644745030369" fill="rgb(0, 0, 0)" stroke="rgb(60, 60, 60)" stroke-width="1px" opacity="0.25"></line><line x1="0" y1="78.82840013081163" x2="288.9379997253418" y2="78.82840013081163" fill="rgb(0, 0, 0)" stroke="rgb(60, 60, 60)" stroke-width="1px" opacity="0.25"></line><line x1="0" y1="60.41035281131957" x2="288.9379997253418" y2="60.41035281131957" fill="rgb(0, 0, 0)" stroke="rgb(60, 60, 60)" stroke-width="1px" opacity="0.25"></line><line x1="0" y1="41.992305491827494" x2="288.9379997253418" y2="41.992305491827494" fill="rgb(0, 0, 0)" stroke="rgb(60, 60, 60)" stroke-width="1px" opacity="0.25"></line><line x1="0" y1="23.57425817233539" x2="288.9379997253418" y2="23.57425817233539" fill="rgb(0, 0, 0)" stroke="rgb(60, 60, 60)" stroke-width="1px" opacity="0.25"></line><line x1="0" y1="5.156210852843344" x2="288.9379997253418" y2="5.156210852843344" fill="rgb(0, 0, 0)" stroke="rgb(60, 60, 60)" stroke-width="1px" opacity="0.25"></line></g></g></g><g><g><line x1="0" y1="189.33668404776404" x2="288.9379997253418" y2="189.33668404776404" fill="rgb(0, 0, 0)" stroke="rgb(153, 153, 153)" stroke-width="1.5px"></line></g></g><g><g><line x1="0.6178247423032363" y1="0" x2="0.6178247423032363" y2="177.95999908447266" fill="rgb(0, 0, 0)" stroke="rgb(153, 153, 153)" stroke-width="1.5px"></line></g></g><g><g><g><g><g><path style="fill: none;" stroke="rgb(255, 112, 67)" stroke-width="2px" d="M1.7202519737926272,99.08825042577104L2.8226792052820175,93.31456650392252L3.925106436771409,90.60698455450309L5.0275336682608,76.6249265107564L6.12996089975019,71.14092390937213L7.232388131239581,60.34873433122732L8.334815362728973,61.906682347444274L9.437242594218363,60.53316360007496L10.539669825707755,56.718112975522686L11.642097057197146,55.971523995386335L12.744524288686536,55.52999450681878L13.846951520175928,56.76303793130319L14.949378751665318,44.7994296519052L16.05180598315471,44.40820099356665L17.1542332146441,45.6680799838515L18.25666044613349,44.92513730328844L19.35908767762288,48.213407994365724L20.461514909112275,44.20164972013171L21.563942140601664,47.03666724935141L22.666369372091054,47.97745421050729L23.768796603580448,54.5047595562378L24.871223835069838,47.19934416896959L25.973651066559228,45.836413941576865L27.07607829804862,50.247012313219116L28.17850552953801,45.411983599967044L29.2809327610274,46.26480930855041L30.38335999251679,46.77223984916506L31.485787224006184,43.34450346983431L32.588214455495574,40.5590709791652L33.69064168698497,39.647669500691904L34.793068918474354,39.851316003658866L35.89549614996375,34.00503920949774L36.99792338145314,36.49395104972959L38.10035061294253,39.46671397870671L39.20277784443192,41.23550788005264L40.30520507592131,41.54201002594158L41.4076323074107,43.96217387268334L42.51005953890009,37.94286039141048L43.61248677038949,41.820679835381696L44.714914001878874,44.87391260629548L45.81734123336827,36.993484539559006L46.919768464857654,35.2883506640153L48.02219569634705,40.987176747560284L49.124622927836434,38.410532179203585L50.22705015932583,38.3692890714658L51.32947739081522,42.07440489393812L52.431904622304614,38.31149827535327L53.534331853794,37.564433693602325L54.636759085283394,34.88213520616023L55.73918631677278,40.74547854901954L56.841613548262174,42.74230742786739L57.94404077975156,43.184485959617376L59.04646801124096,44.19351683716795L60.14889524273035,40.31830453282643L61.25132247421974,41.74220423706777L62.35374970570913,37.36790867954511L63.45617693719852,39.98671870436516L64.5586041686879,34.83153437745909L65.66103140017731,38.477575994623805L66.7634586316667,42.88476581812429L67.86588586315608,44.015183352978454L68.96831309464547,41.70405651986479L70.07074032613487,38.83707564403363L71.17316755762425,40.11494284317121L72.27559478911365,37.891553006400954L73.37802202060304,36.568636053522624L74.48044925209243,37.2733608766886L75.58287648358183,35.45487708518482L76.68530371507121,38.10253470065615L77.7877309465606,38.186030571733056L78.89015817804999,38.981640820088074L79.99258540953939,45.422475004468225L81.09501264102877,44.03325546262977L82.19743987251816,39.47701436381979L83.29986710400755,39.7497761763797L84.40229433549696,41.40392986498139L85.50472156698635,44.625946370986924L86.60714879847573,45.79711598699595L87.70957602996512,49.477682728778404L88.81200326145452,46.44610405859433L89.91443049294391,43.89638454477054L91.0168577244333,46.85488711052574L92.11928495592268,49.36112634221436L93.22171218741208,45.63082280352447L94.32413941890147,37.44384611139506L95.42656665039085,43.01562674266734L96.52899388188024,46.33083621827433L97.63142111336964,46.06559524106768L98.73384834485904,48.14556747482254L99.83627557634843,38.19418898575316L100.93870280783781,41.22429013771759L102.04113003932721,37.05974979043276L103.1435572708166,36.073713140021596L104.24598450230599,38.47074215328405L105.34841173379537,33.929528329566295L106.45083896528477,33.46529671964706L107.55326619677416,30.205358091487994L108.65569342826355,37.21686596069409L109.75812065975293,33.92940220003953L110.86054789124233,38.686742000217976L111.96297512273172,43.00921959145268L113.0654023542211,44.08923334810879L114.1678295857105,41.74811626696737L115.2702568171999,41.1010818087525L116.3726840486893,40.71609630611465L117.47511128017868,35.265514050500485L118.57753851166807,35.752073079826175L119.67996574315745,34.54971084605168L120.78239297464685,36.07210037824339L121.88482020613624,36.2319919448332L122.98724743762563,40.056782898370216L124.08967466911501,38.60287804430865L125.19210190060441,36.245939799918744L126.2945291320938,36.33542640073003L127.39695636358319,37.880531338341285L128.49938359507257,41.03766383750752L129.60181082656197,37.69463734687207L130.70423805805137,34.21367617481542L131.80666528954075,30.650643867313192L132.90909252103015,35.98994614108679L134.01151975251955,33.94531511243744L135.11394698400892,35.71248491674291L136.21637421549832,33.780225683952864L137.31880144698772,37.85204732198741L138.42122867847712,36.54513017129659L139.5236559099665,36.51344467169986L140.6260831414559,43.207968091112946L141.72851037294527,42.7156238491834L142.83093760443467,36.45523293862638L143.93336483592407,37.20588602332535L145.03579206741347,33.17693893224089L146.13821929890284,29.28785500291704L147.24064653039224,30.70350109029073L148.3430737618816,37.513261044981704L149.445500993371,36.34355233647821L150.54792822486039,40.12316133139899L151.65035545634979,38.642373211960745L152.7527826878392,42.23688995737538L153.8552099193286,40.64597194948101L154.957637150818,43.42903120619994L156.06006438230736,39.86343558240304L157.16249161379676,36.99597153508492L158.26491884528613,36.78169528315391L159.36734607677553,36.654200913254925L160.4697733082649,35.08647690694178L161.5722005397543,35.64554597940872L162.6746277712437,32.99446681117473L163.7770550027331,38.8763856489077L164.8794822342225,43.867987767487364L165.98190946571188,41.616475146497606L167.08433669720128,42.514615752201536L168.18676392869065,40.811218797402546L169.28919116018005,44.273283285777524L170.39161839166943,38.12797050846419L171.49404562315885,35.96336981609127L172.59647285464823,34.675432404129424L173.69890008613763,39.876560176715714L174.801327317627,38.495645524924214L175.9037545491164,35.43620624582073L177.00618178060577,41.07515081758635L178.10860901209517,37.71694210001897L179.21103624358454,34.9728777080021L180.31346347507397,31.84829898462354L181.41589070656337,32.226965259406086L182.51831793805275,37.67379202054107L183.62074516954215,37.93092867706457L184.72317240103152,38.829855192760334L185.82559963252092,34.88913079311894L186.9280268640103,37.01998545181269L188.0304540954997,35.30411870738362L189.1328813269891,36.52097305573591L190.2353085584785,40.22872665935731L191.33773578996787,38.70518458209597L192.44016302145727,37.79867704612545L193.54259025294664,29.054063914326576L194.64501748443604,35.78591572021875L195.74744471592544,35.31578186824427L196.8498719474148,35.03605222631944L197.95229917890424,36.361473499502694L199.0547264103936,33.42044368563066L200.157153641883,36.892046827921405L201.25958087337239,40.449515553807714L202.3620081048618,41.82027479455104L203.46443533635116,40.398085927600505L204.56686256784056,47.011190048502385L205.66928979932993,48.7081963852462L206.77171703081936,48.226054745480184L207.87414426230873,41.97172993711581L208.97657149379813,42.72599235261936L210.07899872528753,43.92071314100298L211.1814259567769,41.64784674373942L212.2838531882663,43.2792165037194L213.38628041975568,41.266156244555674L214.48870765124508,40.06838539035323L215.59113488273448,49.0528132901278L216.69356211422388,46.19330674259723L217.79598934571325,44.49190034681655L218.89841657720265,43.479563541327025L220.00084380869203,42.87722314206076L221.10327104018143,38.789175133081244L222.2056982716708,40.08644203915452L223.3081255031602,37.87459502801104L224.41055273464963,38.0504064665092L225.512979966139,39.64687468254414L226.6154071976284,38.358982655892135L227.71783442911777,38.33861710509845L228.82026166060717,41.31022486872803L229.92268889209655,40.8405364268001L231.02511612358595,37.57734653750114L232.12754335507532,39.36540402478437L233.22997058656475,38.19150761452505L234.33239781805412,34.50931398406897L235.43482504954352,37.53992465549223L236.5372522810329,36.35941718473197L237.6396795125223,37.14887564975817L238.74210674401166,39.85639405164156L239.84453397550107,42.95923235698544L240.94696120699047,43.313556292441774L242.04938843847987,39.04879335755794L243.15181566996927,40.98684508778243L244.25424290145864,39.15626504700893L245.35667013294804,32.845554041204025L246.4590973644374,37.29591769455186L247.5615245959268,30.246782510268787L248.66395182741618,36.49558328480441L249.76637905890558,37.975824684365534L250.86880629039499,38.110638112040135L251.9712335218844,38.93678230657076L253.0736607533738,37.93647769218802L254.17608798486316,35.103501385342696L255.27851521635256,37.89346615925007L256.38094244784196,33.586049113116076L257.4833696793313,34.00686123701817L258.5857969108207,33.511309799580886L259.6882241423101,36.946112165721786L260.7906513737995,36.75202895838285L261.8930786052889,40.36620492143226L262.9955058367783,38.78698414803057L264.09793306826765,38.59327799292083L265.20036029975705,39.96988324075906L266.30278753124645,40.78896336322282L267.40521476273585,39.03852542089595L268.5076419942252,39.48887525533999L269.61006922571465,39.75683340683423L270.71249645720405,41.408128917101834L271.8149236886934,37.16913386416641L272.9173509201828,34.64693180766983L274.0197781516722,36.129946850406185L275.1222053831616,35.520480390705785L276.22463261465094,36.64970825731257L277.32705984614034,38.81345924807218L278.42948707762974,40.846821292638424L279.53191430911914,39.07295088889825L280.63434154060855,38.01749799867281L281.73676877209795,35.897638672765424L282.8391960035873,39.857842701489886L283.9416232350767,36.992643770941584" fill="none"></path></g></g></g></g><g opacity="0.2"><g><g><g><path style="fill: none;" stroke="rgb(255, 112, 67)" stroke-width="2px" d="M1.7202519737926272,99.08825042577104L2.8226792052820175,89.87922457042266L3.925106436771409,88.03742159495532L5.0275336682608,60.41035500692189L6.12996089975019,64.09396095785655L7.232388131239581,45.675920225171495L8.334815362728973,64.09396095785655L9.437242594218363,58.568552031454544L10.539669825707755,51.20132915157353L11.642097057197146,54.884935102508194L12.744524288686536,54.884935102508194L13.846951520175928,58.568552031454544L14.949378751665318,27.25786851447475L16.05180598315471,43.83410627169249L17.1542332146441,47.51772320063884L18.25666044613349,43.83410627169249L19.35908767762288,53.04313212704086L20.461514909112275,38.30869734529048L21.563942140601664,51.20132915157353L22.666369372091054,49.35952617610616L23.768796603580448,64.09396095785655L24.871223835069838,36.46689436982311L25.973651066559228,43.83410627169249L27.07607829804862,56.726738077975526L28.17850552953801,38.30869734529048L29.2809327610274,47.51772320063884L30.38335999251679,47.51772320063884L31.485787224006184,38.30869734529048L32.588214455495574,36.46689436982311L33.69064168698497,38.30869734529048L34.793068918474354,40.1505003207578L35.89549614996375,25.416065539007434L36.99792338145314,40.1505003207578L38.10035061294253,43.83410627169249L39.20277784443192,43.83410627169249L40.30520507592131,41.992303296225145L41.4076323074107,47.51772320063884L42.51005953890009,29.099671489942097L43.61248677038949,47.51772320063884L44.714914001878874,49.35952617610616L45.81734123336827,25.416065539007434L46.919768464857654,32.78327744087676L48.02219569634705,49.35952617610616L49.124622927836434,34.62509139435579L50.22705015932583,38.30869734529048L51.32947739081522,47.51772320063884L52.431904622304614,32.78327744087676L53.534331853794,36.46689436982311L54.636759085283394,30.941474465409442L55.73918631677278,49.35952617610616L56.841613548262174,45.675920225171495L57.94404077975156,43.83410627169249L59.04646801124096,45.675920225171495L60.14889524273035,34.62509139435579L61.25132247421974,43.83410627169249L62.35374970570913,30.941474465409442L63.45617693719852,43.83410627169249L64.5586041686879,27.25786851447475L65.66103140017731,43.83410627169249L66.7634586316667,49.35952617610616L67.86588586315608,45.675920225171495L68.96831309464547,38.30869734529048L70.07074032613487,34.62509139435579L71.17316755762425,41.992303296225145L72.27559478911365,34.62509139435579L73.37802202060304,34.62509139435579L74.48044925209243,38.30869734529048L75.58287648358183,32.78327744087676L76.68530371507121,41.992303296225145L77.7877309465606,38.30869734529048L78.89015817804999,40.1505003207578L79.99258540953939,54.884935102508194L81.09501264102877,41.992303296225145L82.19743987251816,32.78327744087676L83.29986710400755,40.1505003207578L84.40229433549696,43.83410627169249L85.50472156698635,49.35952617610616L86.60714879847573,47.51772320063884L87.70957602996512,54.884935102508194L88.81200326145452,41.992303296225145L89.91443049294391,40.1505003207578L91.0168577244333,51.20132915157353L92.11928495592268,53.04313212704086L93.22171218741208,40.1505003207578L94.32413941890147,25.416065539007434L95.42656665039085,51.20132915157353L96.52899388188024,51.20132915157353L97.63142111336964,45.675920225171495L98.73384834485904,51.20132915157353L99.83627557634843,23.57426256354009L100.93870280783781,45.675920225171495L102.04113003932721,30.941474465409442L103.1435572708166,34.62509139435579L104.24598450230599,41.992303296225145L105.34841173379537,27.25786851447475L106.45083896528477,32.78327744087676L107.55326619677416,25.416065539007434L108.65569342826355,47.51772320063884L109.75812065975293,29.099671489942097L110.86054789124233,45.675920225171495L111.96297512273172,49.35952617610616L113.0654023542211,45.675920225171495L114.1678295857105,38.30869734529048L115.2702568171999,40.1505003207578L116.3726840486893,40.1505003207578L117.47511128017868,27.25786851447475L118.57753851166807,36.46689436982311L119.67996574315745,32.78327744087676L120.78239297464685,38.30869734529048L121.88482020613624,36.46689436982311L122.98724743762563,45.675920225171495L124.08967466911501,36.46689436982311L125.19210190060441,32.78327744087676L126.2945291320938,36.46689436982311L127.39695636358319,40.1505003207578L128.49938359507257,45.675920225171495L129.60181082656197,32.78327744087676L130.70423805805137,29.099671489942097L131.80666528954075,25.416065539007434L132.90909252103015,43.83410627169249L134.01151975251955,30.941474465409442L135.11394698400892,38.30869734529048L136.21637421549832,30.941474465409442L137.31880144698772,43.83410627169249L138.42122867847712,34.62509139435579L139.5236559099665,36.46689436982311L140.6260831414559,53.04313212704086L141.72851037294527,41.992303296225145L142.83093760443467,27.25786851447475L143.93336483592407,38.30869734529048L145.03579206741347,27.25786851447475L146.13821929890284,23.57426256354009L147.24064653039224,32.78327744087676L148.3430737618816,47.51772320063884L149.445500993371,34.62509139435579L150.54792822486039,45.675920225171495L151.65035545634979,36.46689436982311L152.7527826878392,47.51772320063884L153.8552099193286,38.30869734529048L154.957637150818,47.51772320063884L156.06006438230736,34.62509139435579L157.16249161379676,32.78327744087676L158.26491884528613,36.46689436982311L159.36734607677553,36.46689436982311L160.4697733082649,32.78327744087676L161.5722005397543,36.46689436982311L162.6746277712437,29.099671489942097L163.7770550027331,47.51772320063884L164.8794822342225,51.20132915157353L165.98190946571188,38.30869734529048L167.08433669720128,43.83410627169249L168.18676392869065,38.30869734529048L169.28919116018005,49.35952617610616L170.39161839166943,29.099671489942097L171.49404562315885,32.78327744087676L172.59647285464823,32.78327744087676L173.69890008613763,47.51772320063884L174.801327317627,36.46689436982311L175.9037545491164,30.941474465409442L177.00618178060577,49.35952617610616L178.10860901209517,32.78327744087676L179.21103624358454,30.941474465409442L180.31346347507397,27.25786851447475L181.41589070656337,32.78327744087676L182.51831793805275,45.675920225171495L183.62074516954215,38.30869734529048L184.72317240103152,40.1505003207578L185.82559963252092,29.099671489942097L186.9280268640103,40.1505003207578L188.0304540954997,32.78327744087676L189.1328813269891,38.30869734529048L190.2353085584785,45.675920225171495L191.33773578996787,36.46689436982311L192.44016302145727,36.46689436982311L193.54259025294664,16.207039683659048L194.64501748443604,45.675920225171495L195.74744471592544,34.62509139435579L196.8498719474148,34.62509139435579L197.95229917890424,38.30869734529048L199.0547264103936,29.099671489942097L200.157153641883,41.992303296225145L201.25958087337239,45.675920225171495L202.3620081048618,43.83410627169249L203.46443533635116,38.30869734529048L204.56686256784056,56.726738077975526L205.66928979932993,51.20132915157353L206.77171703081936,47.51772320063884L207.87414426230873,32.78327744087676L208.97657149379813,43.83410627169249L210.07899872528753,45.675920225171495L211.1814259567769,38.30869734529048L212.2838531882663,45.675920225171495L213.38628041975568,38.30869734529048L214.48870765124508,38.30869734529048L215.59113488273448,62.25215798238922L216.69356211422388,41.992303296225145L217.79598934571325,41.992303296225145L218.89841657720265,41.992303296225145L220.00084380869203,41.992303296225145L221.10327104018143,32.78327744087676L222.2056982716708,41.992303296225145L223.3081255031602,34.62509139435579L224.41055273464963,38.30869734529048L225.512979966139,41.992303296225145L226.6154071976284,36.46689436982311L227.71783442911777,38.30869734529048L228.82026166060717,45.675920225171495L229.92268889209655,40.1505003207578L231.02511612358595,32.78327744087676L232.12754335507532,41.992303296225145L233.22997058656475,36.46689436982311L234.33239781805412,29.099671489942097L235.43482504954352,41.992303296225145L236.5372522810329,34.62509139435579L237.6396795125223,38.30869734529048L238.74210674401166,43.83410627169249L239.84453397550107,47.51772320063884L240.94696120699047,43.83410627169249L242.04938843847987,32.78327744087676L243.15181566996927,43.83410627169249L244.25424290145864,36.46689436982311L245.35667013294804,23.57426256354009L246.4590973644374,43.83410627169249L247.5615245959268,19.89064563459371L248.66395182741618,45.675920225171495L249.76637905890558,40.1505003207578L250.86880629039499,38.30869734529048L251.9712335218844,40.1505003207578L253.0736607533738,36.46689436982311L254.17608798486316,30.941474465409442L255.27851521635256,41.992303296225145L256.38094244784196,27.25786851447475L257.4833696793313,34.62509139435579L258.5857969108207,32.78327744087676L259.6882241423101,41.992303296225145L260.7906513737995,36.46689436982311L261.8930786052889,45.675920225171495L262.9955058367783,36.46689436982311L264.09793306826765,38.30869734529048L265.20036029975705,41.992303296225145L266.30278753124645,41.992303296225145L267.40521476273585,36.46689436982311L268.5076419942252,40.1505003207578L269.61006922571465,40.1505003207578L270.71249645720405,43.83410627169249L271.8149236886934,30.941474465409442L272.9173509201828,30.941474465409442L274.0197781516722,38.30869734529048L275.1222053831616,34.62509139435579L276.22463261465094,38.30869734529048L277.32705984614034,41.992303296225145L278.42948707762974,43.83410627169249L279.53191430911914,36.46689436982311L280.63434154060855,36.46689436982311L281.73676877209795,32.78327744087676L282.8391960035873,45.675920225171495L283.9416232350767,32.78327744087676" fill="none"></path></g></g></g></g></g></g><g transform="translate(41, 177)" clip-path="url(#clip_1)"><clipPath id="clip_1"><rect width="288" height="22"></rect></clipPath><g><g><line x1="0.6178247423032363" y1="0" x2="0.6178247423032363" y2="5" style="visibility: inherit;" fill="rgb(0, 0, 0)" stroke="rgb(204, 204, 204)" stroke-width="1px"></line><line x1="22.666369372091054" y1="0" x2="22.666369372091054" y2="5" style="visibility: inherit;" fill="rgb(0, 0, 0)" stroke="rgb(204, 204, 204)" stroke-width="1px"></line><line x1="44.714914001878874" y1="0" x2="44.714914001878874" y2="5" style="visibility: inherit;" fill="rgb(0, 0, 0)" stroke="rgb(204, 204, 204)" stroke-width="1px"></line><line x1="66.7634586316667" y1="0" x2="66.7634586316667" y2="5" style="visibility: inherit;" fill="rgb(0, 0, 0)" stroke="rgb(204, 204, 204)" stroke-width="1px"></line><line x1="88.81200326145452" y1="0" x2="88.81200326145452" y2="5" style="visibility: inherit;" fill="rgb(0, 0, 0)" stroke="rgb(204, 204, 204)" stroke-width="1px"></line><line x1="110.86054789124233" y1="0" x2="110.86054789124233" y2="5" style="visibility: inherit;" fill="rgb(0, 0, 0)" stroke="rgb(204, 204, 204)" stroke-width="1px"></line><line x1="132.90909252103015" y1="0" x2="132.90909252103015" y2="5" style="visibility: inherit;" fill="rgb(0, 0, 0)" stroke="rgb(204, 204, 204)" stroke-width="1px"></line><line x1="154.957637150818" y1="0" x2="154.957637150818" y2="5" style="visibility: inherit;" fill="rgb(0, 0, 0)" stroke="rgb(204, 204, 204)" stroke-width="1px"></line><line x1="177.00618178060577" y1="0" x2="177.00618178060577" y2="5" style="visibility: inherit;" fill="rgb(0, 0, 0)" stroke="rgb(204, 204, 204)" stroke-width="1px"></line><line x1="199.0547264103936" y1="0" x2="199.0547264103936" y2="5" style="visibility: inherit;" fill="rgb(0, 0, 0)" stroke="rgb(204, 204, 204)" stroke-width="1px"></line><line x1="221.10327104018143" y1="0" x2="221.10327104018143" y2="5" style="visibility: inherit;" fill="rgb(0, 0, 0)" stroke="rgb(204, 204, 204)" stroke-width="1px"></line><line x1="243.15181566996927" y1="0" x2="243.15181566996927" y2="5" style="visibility: inherit;" fill="rgb(0, 0, 0)" stroke="rgb(204, 204, 204)" stroke-width="1px"></line><line x1="265.20036029975705" y1="0" x2="265.20036029975705" y2="5" style="visibility: inherit;" fill="rgb(0, 0, 0)" stroke="rgb(204, 204, 204)" stroke-width="1px"></line><line x1="287.2489049295449" y1="0" x2="287.2489049295449" y2="5" style="visibility: inherit;" fill="rgb(0, 0, 0)" stroke="rgb(204, 204, 204)" stroke-width="1px"></line></g><g transform="translate(0, 8)"><text style="text-anchor: middle; visibility: hidden; font-family: &quot;Helvetica Neue&quot;, sans-serif; font-size: 12px; font-weight: 200;" x="0.6178247423032363" y="0" dx="0em" dy="0.95em" fill="rgb(50, 49, 63)" stroke="none" stroke-width="1px">0</text><text style="text-anchor: middle; visibility: inherit; font-family: &quot;Helvetica Neue&quot;, sans-serif; font-size: 12px; font-weight: 200;" x="22.666369372091054" y="0" dx="0em" dy="0.95em" fill="rgb(50, 49, 63)" stroke="none" stroke-width="1px">20</text><text style="text-anchor: middle; visibility: hidden; font-family: &quot;Helvetica Neue&quot;, sans-serif; font-size: 12px; font-weight: 200;" x="44.714914001878874" y="0" dx="0em" dy="0.95em" fill="rgb(50, 49, 63)" stroke="none" stroke-width="1px">40</text><text style="text-anchor: middle; visibility: inherit; font-family: &quot;Helvetica Neue&quot;, sans-serif; font-size: 12px; font-weight: 200;" x="66.7634586316667" y="0" dx="0em" dy="0.95em" fill="rgb(50, 49, 63)" stroke="none" stroke-width="1px">60</text><text style="text-anchor: middle; visibility: hidden; font-family: &quot;Helvetica Neue&quot;, sans-serif; font-size: 12px; font-weight: 200;" x="88.81200326145452" y="0" dx="0em" dy="0.95em" fill="rgb(50, 49, 63)" stroke="none" stroke-width="1px">80</text><text style="text-anchor: middle; visibility: inherit; font-family: &quot;Helvetica Neue&quot;, sans-serif; font-size: 12px; font-weight: 200;" x="110.86054789124233" y="0" dx="0em" dy="0.95em" fill="rgb(50, 49, 63)" stroke="none" stroke-width="1px">100</text><text style="text-anchor: middle; visibility: hidden; font-family: &quot;Helvetica Neue&quot;, sans-serif; font-size: 12px; font-weight: 200;" x="132.90909252103015" y="0" dx="0em" dy="0.95em" fill="rgb(50, 49, 63)" stroke="none" stroke-width="1px">120</text><text style="text-anchor: middle; visibility: inherit; font-family: &quot;Helvetica Neue&quot;, sans-serif; font-size: 12px; font-weight: 200;" x="154.957637150818" y="0" dx="0em" dy="0.95em" fill="rgb(50, 49, 63)" stroke="none" stroke-width="1px">140</text><text style="text-anchor: middle; visibility: hidden; font-family: &quot;Helvetica Neue&quot;, sans-serif; font-size: 12px; font-weight: 200;" x="177.00618178060577" y="0" dx="0em" dy="0.95em" fill="rgb(50, 49, 63)" stroke="none" stroke-width="1px">160</text><text style="text-anchor: middle; visibility: inherit; font-family: &quot;Helvetica Neue&quot;, sans-serif; font-size: 12px; font-weight: 200;" x="199.0547264103936" y="0" dx="0em" dy="0.95em" fill="rgb(50, 49, 63)" stroke="none" stroke-width="1px">180</text><text style="text-anchor: middle; visibility: hidden; font-family: &quot;Helvetica Neue&quot;, sans-serif; font-size: 12px; font-weight: 200;" x="221.10327104018143" y="0" dx="0em" dy="0.95em" fill="rgb(50, 49, 63)" stroke="none" stroke-width="1px">200</text><text style="text-anchor: middle; visibility: inherit; font-family: &quot;Helvetica Neue&quot;, sans-serif; font-size: 12px; font-weight: 200;" x="243.15181566996927" y="0" dx="0em" dy="0.95em" fill="rgb(50, 49, 63)" stroke="none" stroke-width="1px">220</text><text style="text-anchor: middle; visibility: hidden; font-family: &quot;Helvetica Neue&quot;, sans-serif; font-size: 12px; font-weight: 200;" x="265.20036029975705" y="0" dx="0em" dy="0.95em" fill="rgb(50, 49, 63)" stroke="none" stroke-width="1px">240</text><text style="text-anchor: middle; visibility: hidden; font-family: &quot;Helvetica Neue&quot;, sans-serif; font-size: 12px; font-weight: 200;" x="287.2489049295449" y="0" dx="0em" dy="0.95em" fill="rgb(50, 49, 63)" stroke="none" stroke-width="1px">260</text></g><line x1="0" y1="0" x2="288.9379997253418" y2="0" fill="rgb(0, 0, 0)" stroke="rgb(204, 204, 204)" stroke-width="1px"></line></g></g></g></g></svg>